<?xml version="1.0" encoding="UTF-8" standalone="no"?>
<!DOCTYPE svg PUBLIC "-//W3C//DTD SVG 1.1//EN" "http://www.w3.org/Graphics/SVG/1.1/DTD/svg11.dtd">
<svg width="100%" height="100%" viewBox="0 0 300 82" version="1.1" xmlns="http://www.w3.org/2000/svg" xmlns:xlink="http://www.w3.org/1999/xlink" xml:space="preserve" xmlns:serif="http://www.serif.com/" style="fill-rule:evenodd;clip-rule:evenodd;stroke-linejoin:round;stroke-miterlimit:2;">
    <g transform="matrix(7.37768,0,0,7.37768,-2604.65,-2550.58)">
        <g transform="matrix(12,0,0,12,353.017,354.3)">
            <path d="M0.5,-0.69C0.494,-0.696 0.484,-0.699 0.475,-0.697C0.455,-0.704 0.432,-0.699 0.412,-0.696C0.385,-0.693 0.357,-0.69 0.33,-0.688C0.302,-0.686 0.274,-0.684 0.247,-0.682C0.219,-0.681 0.191,-0.683 0.164,-0.68C0.145,-0.678 0.136,-0.665 0.136,-0.651C0.133,-0.646 0.133,-0.64 0.136,-0.634C0.147,-0.617 0.161,-0.603 0.175,-0.587C0.188,-0.572 0.201,-0.557 0.214,-0.542C0.238,-0.512 0.261,-0.481 0.283,-0.45C0.327,-0.386 0.374,-0.315 0.387,-0.239C0.397,-0.175 0.371,-0.111 0.312,-0.079C0.252,-0.046 0.167,-0.056 0.116,-0.102C0.05,-0.163 0.099,-0.267 0.123,-0.337C0.128,-0.353 0.112,-0.371 0.095,-0.37C0.058,-0.368 0.042,-0.272 0.034,-0.245C0.017,-0.182 0.008,-0.117 0.002,-0.052C0,-0.022 0.052,-0.015 0.057,-0.045C0.059,-0.056 0.061,-0.067 0.063,-0.079C0.113,-0.017 0.207,0.005 0.285,-0.007C0.368,-0.021 0.438,-0.092 0.45,-0.174C0.464,-0.267 0.416,-0.355 0.365,-0.431C0.336,-0.474 0.305,-0.515 0.272,-0.554C0.256,-0.573 0.239,-0.59 0.222,-0.608C0.217,-0.613 0.212,-0.619 0.207,-0.624C0.22,-0.625 0.233,-0.625 0.247,-0.626C0.275,-0.627 0.304,-0.63 0.332,-0.632C0.36,-0.635 0.389,-0.639 0.417,-0.643C0.423,-0.644 0.431,-0.645 0.438,-0.646C0.426,-0.616 0.417,-0.584 0.409,-0.554C0.403,-0.532 0.398,-0.51 0.395,-0.488C0.393,-0.477 0.391,-0.465 0.39,-0.453C0.388,-0.44 0.384,-0.427 0.389,-0.414C0.395,-0.396 0.417,-0.388 0.433,-0.4C0.437,-0.402 0.438,-0.405 0.44,-0.408L0.44,-0.407C0.447,-0.419 0.447,-0.432 0.449,-0.444C0.45,-0.454 0.452,-0.463 0.454,-0.473C0.457,-0.495 0.461,-0.517 0.467,-0.538C0.472,-0.559 0.478,-0.58 0.485,-0.6C0.491,-0.62 0.5,-0.639 0.507,-0.659C0.507,-0.66 0.507,-0.66 0.507,-0.661C0.507,-0.661 0.508,-0.662 0.508,-0.663C0.51,-0.672 0.508,-0.683 0.5,-0.69Z" style="fill:white;fill-rule:nonzero;"/>
        </g>
        <g transform="matrix(12,0,0,12,358.489,354.3)">
            <path d="M0.276,-0.469C0.227,-0.42 0.177,-0.371 0.133,-0.317C0.131,-0.314 0.129,-0.312 0.127,-0.309C0.131,-0.326 0.135,-0.344 0.139,-0.361C0.162,-0.467 0.183,-0.573 0.205,-0.679C0.208,-0.693 0.202,-0.708 0.188,-0.713C0.176,-0.718 0.159,-0.714 0.152,-0.702C0.141,-0.679 0.127,-0.657 0.114,-0.636C0.101,-0.616 0.08,-0.596 0.083,-0.571C0.083,-0.563 0.088,-0.557 0.096,-0.557C0.104,-0.558 0.111,-0.56 0.117,-0.563C0.102,-0.502 0.087,-0.44 0.073,-0.379C0.049,-0.273 0.025,-0.168 0.002,-0.062C0.001,-0.056 0.001,-0.05 0.003,-0.045C0.002,-0.042 0.002,-0.038 0.001,-0.034C0,-0.026 0,-0.019 0.004,-0.011C0.008,-0.005 0.015,0 0.022,0.002C0.071,0.013 0.076,-0.083 0.083,-0.113C0.087,-0.131 0.091,-0.149 0.095,-0.167C0.103,-0.179 0.11,-0.192 0.119,-0.205C0.136,-0.232 0.156,-0.257 0.177,-0.282C0.189,-0.296 0.202,-0.31 0.215,-0.324C0.185,-0.226 0.169,-0.136 0.165,-0.034C0.164,-0.015 0.182,0.002 0.201,0.002C0.222,0.002 0.236,-0.015 0.237,-0.034C0.245,-0.178 0.28,-0.304 0.328,-0.439C0.338,-0.469 0.297,-0.489 0.276,-0.469Z" style="fill:white;fill-rule:nonzero;"/>
        </g>
        <g transform="matrix(12,0,0,12,361.554,354.3)">
            <path d="M0.107,-0.451C0.095,-0.435 0.09,-0.414 0.084,-0.395C0.078,-0.377 0.073,-0.358 0.068,-0.34C0.058,-0.303 0.049,-0.266 0.04,-0.228C0.031,-0.191 0.024,-0.154 0.017,-0.117C0.013,-0.099 0.01,-0.08 0.007,-0.062C0.005,-0.049 0,-0.035 0.003,-0.023C0.007,-0.01 0.019,0 0.031,0.003C0.048,0.007 0.065,-0 0.071,-0.017C0.074,-0.023 0.075,-0.031 0.073,-0.038C0.084,-0.103 0.097,-0.166 0.11,-0.23C0.118,-0.264 0.125,-0.297 0.133,-0.331C0.138,-0.348 0.142,-0.365 0.146,-0.383C0.15,-0.401 0.156,-0.42 0.154,-0.438C0.153,-0.464 0.122,-0.472 0.107,-0.451ZM0.201,-0.587C0.2,-0.591 0.198,-0.595 0.195,-0.598C0.194,-0.6 0.192,-0.602 0.19,-0.604C0.187,-0.606 0.183,-0.608 0.179,-0.609C0.176,-0.609 0.174,-0.61 0.171,-0.61L0.163,-0.609C0.159,-0.608 0.155,-0.606 0.152,-0.604C0.149,-0.601 0.146,-0.598 0.144,-0.595C0.142,-0.59 0.139,-0.585 0.137,-0.58L0.135,-0.57C0.134,-0.567 0.133,-0.564 0.132,-0.562C0.13,-0.556 0.128,-0.55 0.129,-0.544C0.129,-0.542 0.13,-0.539 0.13,-0.536C0.131,-0.531 0.133,-0.528 0.136,-0.524C0.138,-0.522 0.14,-0.52 0.142,-0.519C0.146,-0.516 0.149,-0.514 0.153,-0.513C0.159,-0.511 0.165,-0.511 0.171,-0.513C0.175,-0.514 0.179,-0.516 0.182,-0.519C0.186,-0.521 0.189,-0.524 0.191,-0.528C0.191,-0.528 0.191,-0.529 0.191,-0.529C0.193,-0.532 0.194,-0.534 0.195,-0.537C0.195,-0.538 0.195,-0.539 0.195,-0.54C0.196,-0.541 0.196,-0.542 0.196,-0.544C0.197,-0.547 0.198,-0.55 0.198,-0.553C0.199,-0.556 0.2,-0.559 0.2,-0.562C0.202,-0.568 0.202,-0.573 0.202,-0.579L0.201,-0.587Z" style="fill:white;fill-rule:nonzero;"/>
        </g>
        <g transform="matrix(12,0,0,12,362.866,354.3)">
            <path d="M0.279,-0.461C0.232,-0.419 0.179,-0.362 0.13,-0.283C0.127,-0.279 0.125,-0.275 0.123,-0.271C0.126,-0.289 0.129,-0.307 0.133,-0.324C0.136,-0.342 0.14,-0.359 0.143,-0.376C0.146,-0.396 0.151,-0.417 0.151,-0.436C0.151,-0.462 0.111,-0.477 0.099,-0.451C0.083,-0.417 0.078,-0.378 0.069,-0.342C0.061,-0.306 0.053,-0.27 0.045,-0.234C0.038,-0.199 0.03,-0.164 0.022,-0.128L0.012,-0.074C0.007,-0.051 0,-0.029 0.017,-0.009C0.025,0.001 0.041,0 0.051,-0.005C0.071,-0.015 0.074,-0.037 0.078,-0.056C0.08,-0.062 0.083,-0.068 0.085,-0.074C0.095,-0.094 0.104,-0.114 0.114,-0.134C0.134,-0.174 0.156,-0.213 0.18,-0.251C0.197,-0.28 0.215,-0.307 0.235,-0.333C0.234,-0.331 0.234,-0.328 0.233,-0.326C0.233,-0.326 0.234,-0.325 0.233,-0.325C0.222,-0.294 0.21,-0.179 0.263,-0.182C0.276,-0.182 0.293,-0.191 0.295,-0.207C0.309,-0.297 0.322,-0.386 0.331,-0.431C0.341,-0.461 0.301,-0.481 0.279,-0.461Z" style="fill:white;fill-rule:nonzero;"/>
        </g>
        <g transform="matrix(12,0,0,12,366.23,354.3)">
            <path d="M0.471,-0.604C0.361,-0.597 0.308,-0.592 0.197,-0.59C0.197,-0.593 0.198,-0.596 0.199,-0.599C0.205,-0.624 0.212,-0.649 0.213,-0.675C0.214,-0.703 0.175,-0.709 0.162,-0.688L0.162,-0.688C0.162,-0.688 0.161,-0.688 0.161,-0.687C0.161,-0.687 0.161,-0.687 0.161,-0.686C0.157,-0.68 0.155,-0.673 0.152,-0.666C0.142,-0.646 0.125,-0.629 0.106,-0.615C0.098,-0.609 0.097,-0.598 0.101,-0.59C0.075,-0.59 0.05,-0.59 0.025,-0.59C-0.031,-0.591 -0.087,-0.593 -0.143,-0.593C-0.175,-0.592 -0.182,-0.553 -0.158,-0.537C-0.143,-0.525 -0.128,-0.514 -0.112,-0.506C-0.092,-0.496 -0.075,-0.511 -0.076,-0.528C-0.042,-0.526 -0.008,-0.526 0.025,-0.525C0.054,-0.524 0.083,-0.524 0.112,-0.524C0.104,-0.496 0.097,-0.467 0.09,-0.438C0.07,-0.354 -0.03,0.123 -0.037,0.173C-0.038,0.187 -0.025,0.202 -0.012,0.205C0.003,0.209 0.019,0.203 0.026,0.189C0.041,0.167 0.054,0.144 0.068,0.121C0.074,0.109 0.081,0.099 0.088,0.087C0.095,0.075 0.104,0.063 0.108,0.048C0.116,0.019 0.08,-0 0.058,0.019C0.057,0.02 0.057,0.021 0.056,0.022C0.057,0.015 0.059,0.007 0.06,-0L0.061,-0C0.064,-0.014 0.146,-0.37 0.181,-0.524L0.193,-0.524C0.305,-0.525 0.359,-0.529 0.471,-0.537C0.489,-0.539 0.504,-0.552 0.504,-0.57C0.504,-0.587 0.489,-0.604 0.471,-0.604Z" style="fill:white;fill-rule:nonzero;"/>
        </g>
        <g transform="matrix(12,0,0,12,368.087,354.3)">
            <path d="M0.543,-0.695C0.53,-0.701 0.517,-0.696 0.509,-0.685C0.497,-0.667 0.479,-0.651 0.464,-0.635C0.449,-0.618 0.435,-0.6 0.42,-0.583C0.39,-0.546 0.362,-0.507 0.336,-0.468C0.3,-0.415 0.269,-0.36 0.24,-0.304C0.238,-0.314 0.235,-0.324 0.233,-0.334C0.226,-0.372 0.219,-0.41 0.213,-0.448C0.2,-0.523 0.192,-0.6 0.175,-0.675C0.17,-0.693 0.149,-0.695 0.137,-0.685C0.131,-0.685 0.126,-0.682 0.123,-0.677C0.107,-0.653 0.103,-0.627 0.097,-0.6C0.092,-0.575 0.087,-0.55 0.083,-0.524C0.072,-0.472 0.063,-0.418 0.054,-0.365C0.045,-0.313 0.035,-0.261 0.026,-0.208C0.022,-0.182 0.018,-0.156 0.013,-0.13C0.011,-0.117 0.008,-0.103 0.006,-0.089C0.004,-0.076 0,-0.06 0.001,-0.046C0.003,-0.034 0.009,-0.022 0.022,-0.019C0.034,-0.016 0.05,-0.021 0.055,-0.032C0.067,-0.057 0.069,-0.087 0.074,-0.114C0.079,-0.141 0.083,-0.167 0.088,-0.195C0.097,-0.247 0.106,-0.299 0.115,-0.352C0.124,-0.403 0.133,-0.454 0.141,-0.505C0.145,-0.481 0.148,-0.458 0.152,-0.434C0.165,-0.357 0.176,-0.279 0.197,-0.205C0.206,-0.174 0.247,-0.178 0.257,-0.205C0.29,-0.287 0.336,-0.366 0.385,-0.44C0.41,-0.477 0.436,-0.513 0.463,-0.548C0.453,-0.511 0.442,-0.473 0.432,-0.436C0.411,-0.35 0.394,-0.264 0.384,-0.177C0.378,-0.129 0.373,-0.079 0.378,-0.031C0.382,0.006 0.432,0.005 0.437,-0.031C0.442,-0.073 0.442,-0.115 0.447,-0.157C0.451,-0.198 0.458,-0.238 0.465,-0.278C0.48,-0.361 0.501,-0.443 0.523,-0.524C0.53,-0.546 0.536,-0.569 0.542,-0.591C0.548,-0.615 0.556,-0.64 0.559,-0.664C0.561,-0.677 0.557,-0.69 0.543,-0.695Z" style="fill:white;fill-rule:nonzero;"/>
        </g>
        <g transform="matrix(12,0,0,12,373.882,354.3)">
            <path d="M0.305,-0.427C0.3,-0.45 0.284,-0.469 0.261,-0.477C0.226,-0.487 0.188,-0.476 0.154,-0.467C0.143,-0.465 0.051,-0.441 0.048,-0.447L0.048,-0.447C0.037,-0.443 0.028,-0.434 0.028,-0.422C0.02,-0.411 0.028,-0.393 0.041,-0.39C0.049,-0.388 0.056,-0.385 0.064,-0.384C0.047,-0.357 0.035,-0.327 0.026,-0.297C0.014,-0.258 0.006,-0.218 0.004,-0.178C0.001,-0.14 0,-0.098 0.012,-0.061C0.024,-0.02 0.062,0.009 0.108,-0.002C0.152,-0.012 0.177,-0.053 0.199,-0.087C0.222,-0.122 0.242,-0.159 0.258,-0.196C0.274,-0.232 0.287,-0.27 0.295,-0.308C0.3,-0.329 0.303,-0.35 0.305,-0.371C0.307,-0.39 0.309,-0.408 0.305,-0.427ZM0.242,-0.384C0.24,-0.37 0.238,-0.354 0.235,-0.34C0.229,-0.307 0.22,-0.274 0.208,-0.242C0.196,-0.211 0.182,-0.181 0.165,-0.152C0.15,-0.126 0.134,-0.098 0.112,-0.076C0.106,-0.069 0.096,-0.061 0.087,-0.062C0.082,-0.063 0.085,-0.063 0.081,-0.064C0.085,-0.063 0.079,-0.069 0.081,-0.065C0.077,-0.072 0.076,-0.073 0.074,-0.08C0.07,-0.094 0.07,-0.102 0.069,-0.118C0.068,-0.135 0.067,-0.153 0.068,-0.171C0.07,-0.207 0.076,-0.242 0.086,-0.276C0.097,-0.313 0.114,-0.354 0.135,-0.387C0.138,-0.39 0.14,-0.394 0.143,-0.397L0.165,-0.401C0.183,-0.405 0.202,-0.409 0.221,-0.414C0.228,-0.415 0.232,-0.416 0.238,-0.417L0.24,-0.417C0.244,-0.406 0.243,-0.398 0.242,-0.384Z" style="fill:white;fill-rule:nonzero;"/>
        </g>
        <g transform="matrix(12,0,0,12,377.064,354.3)">
            <path d="M0.301,-0.502C0.237,-0.436 0.179,-0.362 0.13,-0.283C0.127,-0.279 0.125,-0.274 0.123,-0.27C0.126,-0.288 0.129,-0.306 0.133,-0.324C0.136,-0.341 0.14,-0.358 0.143,-0.376C0.146,-0.395 0.151,-0.416 0.151,-0.436C0.151,-0.462 0.111,-0.477 0.099,-0.45C0.083,-0.417 0.078,-0.377 0.069,-0.341C0.061,-0.306 0.053,-0.27 0.045,-0.233C0.038,-0.198 0.03,-0.163 0.022,-0.128L0.012,-0.074C0.007,-0.05 0,-0.029 0.017,-0.009C0.025,0.001 0.041,0.001 0.051,-0.004C0.071,-0.014 0.074,-0.036 0.078,-0.056C0.08,-0.062 0.083,-0.067 0.085,-0.073C0.095,-0.093 0.104,-0.114 0.114,-0.134C0.134,-0.174 0.156,-0.213 0.18,-0.251C0.197,-0.279 0.215,-0.306 0.235,-0.333C0.229,-0.314 0.225,-0.296 0.22,-0.277C0.211,-0.24 0.203,-0.203 0.197,-0.166C0.194,-0.146 0.191,-0.126 0.188,-0.107C0.185,-0.078 0.179,-0.021 0.21,-0.004C0.228,0.005 0.251,-0.002 0.26,-0.02C0.271,-0.041 0.263,-0.069 0.265,-0.092C0.274,-0.185 0.292,-0.274 0.319,-0.363C0.331,-0.399 0.34,-0.437 0.353,-0.472C0.363,-0.501 0.322,-0.523 0.301,-0.502Z" style="fill:white;fill-rule:nonzero;"/>
        </g>
        <g transform="matrix(12,0,0,12,380.544,354.3)">
            <path d="M0.785,-0.606C0.674,-0.6 0.621,-0.595 0.51,-0.594C0.511,-0.596 0.512,-0.599 0.512,-0.602C0.518,-0.627 0.525,-0.652 0.526,-0.678C0.527,-0.707 0.489,-0.713 0.476,-0.691L0.475,-0.691C0.475,-0.691 0.475,-0.69 0.475,-0.69L0.474,-0.689C0.471,-0.683 0.468,-0.676 0.466,-0.669C0.455,-0.648 0.438,-0.632 0.419,-0.618C0.412,-0.612 0.411,-0.602 0.414,-0.593C0.389,-0.593 0.363,-0.593 0.338,-0.593C0.282,-0.594 0.226,-0.597 0.17,-0.596C0.139,-0.595 0.132,-0.557 0.155,-0.54C0.166,-0.532 0.176,-0.524 0.188,-0.517C0.192,-0.511 0.197,-0.505 0.202,-0.5C0.213,-0.489 0.222,-0.476 0.229,-0.462C0.208,-0.462 0.188,-0.464 0.167,-0.466C0.142,-0.469 0.106,-0.476 0.085,-0.46C0.057,-0.439 0.081,-0.416 0.096,-0.397C0.105,-0.386 0.115,-0.374 0.124,-0.362C0.144,-0.335 0.163,-0.308 0.179,-0.279C0.206,-0.229 0.23,-0.166 0.214,-0.111C0.201,-0.063 0.143,-0.052 0.107,-0.083C0.059,-0.127 0.071,-0.201 0.111,-0.248C0.122,-0.261 0.124,-0.279 0.111,-0.292C0.1,-0.303 0.078,-0.305 0.067,-0.292C0.024,-0.241 0,-0.172 0.021,-0.107C0.041,-0.046 0.095,0.001 0.161,-0.002C0.191,-0.004 0.221,-0.015 0.243,-0.036C0.269,-0.06 0.28,-0.093 0.283,-0.126C0.287,-0.167 0.279,-0.208 0.265,-0.246C0.27,-0.241 0.275,-0.238 0.283,-0.237C0.298,-0.235 0.313,-0.244 0.316,-0.259C0.319,-0.269 0.32,-0.279 0.321,-0.29C0.321,-0.294 0.322,-0.298 0.322,-0.303C0.323,-0.305 0.323,-0.307 0.323,-0.309L0.323,-0.311C0.326,-0.327 0.329,-0.344 0.333,-0.36C0.338,-0.377 0.344,-0.393 0.349,-0.409C0.351,-0.417 0.354,-0.425 0.355,-0.434C0.357,-0.442 0.355,-0.451 0.35,-0.458C0.348,-0.461 0.346,-0.465 0.342,-0.466C0.325,-0.474 0.307,-0.469 0.289,-0.466C0.282,-0.485 0.274,-0.504 0.263,-0.521C0.261,-0.524 0.259,-0.527 0.257,-0.53C0.284,-0.529 0.311,-0.529 0.338,-0.528C0.367,-0.528 0.396,-0.527 0.425,-0.527C0.418,-0.499 0.411,-0.471 0.404,-0.442C0.383,-0.357 0.283,0.119 0.277,0.169C0.275,0.184 0.289,0.198 0.302,0.202C0.316,0.206 0.332,0.199 0.34,0.187C0.354,0.164 0.367,0.141 0.381,0.118C0.388,0.106 0.395,0.095 0.401,0.084C0.409,0.072 0.417,0.059 0.421,0.045C0.43,0.015 0.394,-0.003 0.372,0.016C0.371,0.017 0.37,0.018 0.369,0.019C0.371,0.011 0.372,0.004 0.374,-0.003L0.375,-0.003C0.377,-0.018 0.459,-0.373 0.495,-0.527C0.499,-0.528 0.502,-0.527 0.506,-0.528C0.618,-0.529 0.673,-0.533 0.785,-0.541C0.803,-0.542 0.818,-0.555 0.818,-0.573C0.818,-0.59 0.803,-0.608 0.785,-0.606ZM0.261,-0.321C0.258,-0.304 0.254,-0.285 0.257,-0.268C0.25,-0.282 0.243,-0.296 0.235,-0.31C0.218,-0.34 0.196,-0.369 0.174,-0.396L0.178,-0.396C0.197,-0.396 0.216,-0.397 0.236,-0.399C0.24,-0.4 0.245,-0.4 0.249,-0.401C0.25,-0.399 0.25,-0.397 0.25,-0.396C0.256,-0.371 0.259,-0.346 0.261,-0.321Z" style="fill:white;fill-rule:nonzero;"/>
        </g>
        <g transform="matrix(12,0,0,12,385.982,354.3)">
            <path d="M0.325,-0.293C0.276,-0.325 0.242,-0.374 0.228,-0.432C0.221,-0.459 0.184,-0.464 0.17,-0.439C0.145,-0.393 0.105,-0.356 0.074,-0.315C0.04,-0.271 0.011,-0.221 0.005,-0.164C0,-0.117 0.016,-0.065 0.048,-0.032C0.087,0.008 0.145,0.012 0.194,-0.011C0.247,-0.035 0.29,-0.09 0.311,-0.146C0.321,-0.175 0.281,-0.196 0.262,-0.175C0.233,-0.145 0.215,-0.104 0.179,-0.081C0.164,-0.072 0.148,-0.066 0.131,-0.067C0.117,-0.067 0.104,-0.073 0.096,-0.083C0.076,-0.102 0.067,-0.136 0.072,-0.166C0.077,-0.188 0.085,-0.209 0.096,-0.229C0.108,-0.226 0.121,-0.225 0.131,-0.224C0.152,-0.222 0.172,-0.221 0.193,-0.222C0.234,-0.222 0.276,-0.227 0.317,-0.235C0.345,-0.24 0.346,-0.28 0.325,-0.293ZM0.19,-0.284C0.172,-0.284 0.154,-0.284 0.136,-0.284C0.154,-0.307 0.173,-0.329 0.19,-0.353C0.202,-0.329 0.218,-0.307 0.236,-0.287C0.221,-0.286 0.206,-0.285 0.19,-0.284Z" style="fill:white;fill-rule:nonzero;"/>
        </g>
        <g transform="matrix(12,0,0,12,389.72,354.3)">
            <path d="M0.279,-0.461C0.232,-0.419 0.179,-0.362 0.13,-0.283C0.127,-0.279 0.125,-0.275 0.123,-0.271C0.126,-0.289 0.129,-0.307 0.133,-0.324C0.136,-0.342 0.14,-0.359 0.143,-0.376C0.146,-0.396 0.151,-0.417 0.151,-0.436C0.151,-0.462 0.111,-0.477 0.099,-0.451C0.083,-0.417 0.078,-0.378 0.069,-0.342C0.061,-0.306 0.053,-0.27 0.045,-0.234C0.038,-0.199 0.03,-0.164 0.022,-0.128L0.012,-0.074C0.007,-0.051 0,-0.029 0.017,-0.009C0.025,0.001 0.041,0 0.051,-0.005C0.071,-0.015 0.074,-0.037 0.078,-0.056C0.08,-0.062 0.083,-0.068 0.085,-0.074C0.095,-0.094 0.104,-0.114 0.114,-0.134C0.134,-0.174 0.156,-0.213 0.18,-0.251C0.197,-0.28 0.215,-0.307 0.235,-0.333C0.234,-0.331 0.234,-0.328 0.233,-0.326C0.233,-0.326 0.234,-0.325 0.233,-0.325C0.222,-0.294 0.21,-0.179 0.263,-0.182C0.276,-0.182 0.293,-0.191 0.295,-0.207C0.309,-0.297 0.322,-0.386 0.331,-0.431C0.341,-0.461 0.301,-0.481 0.279,-0.461Z" style="fill:white;fill-rule:nonzero;"/>
        </g>
    </g>
</svg>
